<?xml version="1.0" standalone="no"?>
<!DOCTYPE svg PUBLIC "-//W3C//DTD SVG 20010904//EN"
 "http://www.w3.org/TR/2001/REC-SVG-20010904/DTD/svg10.dtd">
<svg version="1.0" xmlns="http://www.w3.org/2000/svg"
 width="150px" height="100px" viewBox="0 0 600.000000 241.000000"
 preserveAspectRatio="xMidYMid meet">

<g transform="translate(0.000000,241.000000) scale(0.100000,-0.100000)"
fill="#77AC20" stroke="none">
<path d="M1239 2136 c-147 -105 -231 -224 -252 -356 -6 -39 -13 -69 -16 -67
-3 1 -37 18 -76 37 -66 33 -76 35 -170 34 -68 0 -111 -5 -136 -16 -31 -14 -37
-22 -47 -69 -29 -134 -23 -219 23 -309 l24 -47 -72 -7 c-40 -4 -93 -17 -122
-30 -71 -32 -175 -121 -175 -149 0 -33 89 -184 144 -245 53 -58 137 -112 174
-112 21 0 22 -3 15 -37 -13 -59 -6 -131 17 -194 21 -55 25 -59 74 -76 35 -12
80 -17 141 -17 78 0 100 5 165 32 116 50 217 144 287 269 32 57 76 173 69 180
-2 2 -36 -34 -76 -80 -138 -163 -254 -235 -390 -244 -43 -3 -90 -3 -104 1 -24
6 -26 11 -26 60 l0 53 83 5 c56 3 110 14 170 35 89 31 242 117 307 172 l35 30
-78 -25 c-116 -36 -251 -57 -328 -51 -149 12 -318 81 -411 166 l-53 49 55 15
c137 38 219 32 425 -34 144 -46 355 -101 369 -96 5 2 -64 48 -153 102 -89 55
-188 121 -221 147 -94 76 -176 207 -195 312 l-8 38 34 -7 c114 -23 216 -79
288 -161 44 -50 161 -220 241 -351 24 -40 45 -71 47 -70 6 7 -33 146 -80 287
-51 152 -52 157 -51 270 0 89 5 129 21 178 24 72 101 212 117 212 18 0 73 -89
108 -175 31 -76 33 -86 33 -210 l0 -130 -57 -172 c-71 -216 -89 -312 -42 -220
42 80 210 322 264 380 90 97 159 137 279 162 l34 7 -7 -43 c-23 -141 -147
-292 -341 -413 -195 -122 -230 -146 -217 -146 29 0 226 54 372 102 148 49 160
52 260 51 106 0 190 -17 197 -40 6 -16 -98 -96 -172 -132 -176 -87 -352 -99
-564 -39 -137 39 -138 38 -9 -48 142 -94 299 -154 404 -154 78 0 84 -5 84 -61
0 -47 -1 -48 -36 -55 -61 -11 -175 1 -232 26 -89 39 -165 106 -305 270 -37 44
-38 44 -32 15 11 -50 80 -189 123 -247 138 -187 348 -266 543 -202 42 13 49
20 70 67 23 54 32 155 17 208 -7 23 -4 26 35 36 99 27 179 108 265 270 l44 85
-38 39 c-80 83 -202 139 -300 139 l-44 0 25 48 c47 90 56 215 25 325 -16 55
-57 70 -185 71 -95 1 -104 -1 -170 -34 -38 -19 -72 -35 -75 -37 -3 -2 -11 31
-18 73 -15 97 -56 174 -135 253 -63 62 -181 151 -201 151 -6 0 -45 -25 -87
-54z"/>
<path d="M4782 1148 c-40 -161 -72 -302 -72 -314 0 -34 35 -57 94 -62 l54 -4
11 38 c16 56 14 64 -13 64 l-24 0 30 118 c16 64 45 185 64 267 19 83 37 158
40 168 5 15 -2 17 -53 17 l-58 0 -73 -292z"/>
<path d="M2815 1398 c-6 -18 -155 -616 -155 -624 0 -3 66 -4 148 -2 162 5 193
13 255 68 82 72 148 241 149 381 1 81 -21 130 -71 161 -32 21 -51 23 -178 26
-113 3 -144 1 -148 -10z m252 -113 c34 -24 35 -58 7 -178 -45 -192 -76 -227
-196 -227 -38 0 -68 2 -68 5 0 3 23 98 51 210 l51 205 67 0 c43 0 74 -5 88
-15z"/>
<path d="M4223 1091 l-81 -321 166 0 c148 0 170 2 209 21 99 48 159 214 98
274 -13 14 -33 25 -44 25 -33 0 -33 18 -1 25 70 15 121 94 123 188 1 39 -4 53
-26 75 -27 27 -28 27 -196 30 l-168 3 -80 -320z m331 158 c0 -26 -8 -58 -17
-73 -16 -24 -22 -26 -98 -26 -72 0 -80 2 -75 18 3 9 10 37 16 62 6 25 13 51
15 58 4 9 26 12 82 10 l78 -3 -1 -46z m-44 -224 c10 -12 10 -25 0 -62 -19 -76
-29 -83 -130 -83 l-88 0 20 80 20 80 83 0 c61 0 86 -4 95 -15z"/>
<path d="M5799 1311 c-16 -16 -29 -37 -29 -46 0 -14 -7 -15 -44 -10 -59 9
-142 -10 -183 -41 -43 -32 -73 -93 -80 -158 -5 -46 -2 -55 22 -84 l26 -32 -41
-16 c-66 -27 -93 -112 -40 -129 31 -10 24 -22 -25 -44 -30 -13 -46 -27 -50
-44 -11 -42 -1 -79 25 -99 55 -40 264 -32 338 14 18 11 42 38 53 60 21 41 29
114 14 137 -16 27 -75 41 -174 41 -60 0 -102 4 -106 11 -4 5 -2 22 4 37 11 26
13 27 99 27 61 1 96 6 118 17 97 52 147 196 89 254 -14 14 -25 27 -25 29 0 3
22 5 50 5 48 0 49 1 59 38 17 58 15 62 -30 62 -31 0 -47 -6 -70 -29z m-79
-146 c18 -22 4 -98 -25 -129 -18 -19 -34 -26 -63 -26 -51 0 -66 18 -57 70 10
60 48 100 95 100 21 0 43 -6 50 -15z m-52 -422 c12 -23 -1 -59 -27 -72 -27
-15 -174 -14 -189 1 -15 15 -15 43 -2 69 10 17 22 19 110 19 84 0 101 -3 108
-17z"/>
<path d="M3439 1245 c-139 -43 -240 -293 -170 -423 31 -58 165 -76 252 -34 62
30 84 55 70 79 -26 46 -26 46 -66 19 -38 -26 -105 -35 -132 -18 -18 11 -30 50
-25 83 l4 29 138 0 138 0 11 44 c45 179 -49 273 -220 221z m99 -97 c13 -13 16
-56 6 -82 -5 -13 -22 -16 -80 -16 l-73 0 11 33 c14 45 52 77 92 77 17 0 37 -5
44 -12z"/>
<path d="M5175 1251 c-43 -11 -86 -35 -111 -63 -71 -77 -120 -261 -92 -343 11
-33 22 -44 62 -64 46 -23 53 -24 113 -14 112 20 175 81 214 205 46 146 31 234
-45 269 -42 19 -89 22 -141 10z m79 -107 c21 -20 20 -31 -9 -144 -27 -107 -53
-140 -109 -140 -63 0 -69 28 -32 163 27 102 53 137 102 137 18 0 40 -7 48 -16z"/>
<path d="M3765 1023 c4 -126 8 -234 10 -240 3 -9 29 -13 82 -13 l78 0 77 148
c43 81 100 189 128 240 l50 92 -58 0 -59 0 -89 -185 c-49 -101 -93 -185 -99
-185 -6 0 -9 66 -7 185 l4 185 -62 0 -61 0 6 -227z"/>
<path d="M1291 634 c-90 -174 -263 -282 -481 -300 l-80 -7 33 -24 c93 -69 238
-105 334 -83 73 16 134 52 185 109 l43 48 42 -47 c82 -92 210 -134 330 -110
59 12 195 73 215 97 8 10 2 13 -31 13 -59 0 -186 28 -250 54 -115 49 -223 151
-282 268 l-24 47 -34 -65z"/>
</g>
</svg>
